<?xml version="1.0" encoding="utf-8"?>
<!-- Generator: Adobe Illustrator 16.0.0, SVG Export Plug-In . SVG Version: 6.00 Build 0)  -->
<!DOCTYPE svg PUBLIC "-//W3C//DTD SVG 1.1//EN" "http://www.w3.org/Graphics/SVG/1.1/DTD/svg11.dtd">
<svg version="1.1" id="Capa_1" xmlns="http://www.w3.org/2000/svg" xmlns:xlink="http://www.w3.org/1999/xlink" x="0px" y="0px"
	 width="156px" height="152px" viewBox="0 0 156 152" enable-background="new 0 0 156 152" xml:space="preserve">
<rect fill="#FFFFFF" width="156" height="152"/>
<rect y="101" fill="#CCCCCC" width="156" height="51"/>
<rect fill="#222222" width="156" height="51"/>
<g>
	<path fill="#FFFFFF" d="M43.898,41.407h-2.481v-10.62c0-2.214-0.353-3.844-1.059-4.891c-0.706-1.046-1.751-1.569-3.138-1.569
		c-0.73,0-1.418,0.134-2.062,0.402c-0.645,0.268-1.241,0.645-1.789,1.131c-0.548,0.486-1.028,1.064-1.441,1.733
		c-0.414,0.669-0.73,1.405-0.949,2.208v11.605h-2.481v-10.62c0-2.263-0.341-3.905-1.022-4.927s-1.728-1.533-3.139-1.533
		c-1.436,0-2.713,0.499-3.832,1.497c-1.119,0.998-1.922,2.312-2.409,3.941v11.642h-2.481V22.393h2.263V26.7
		c0.778-1.46,1.8-2.597,3.065-3.413c1.265-0.815,2.664-1.223,4.197-1.223c1.605,0,2.889,0.451,3.85,1.351
		c0.961,0.9,1.551,2.08,1.77,3.54c1.776-3.26,4.221-4.891,7.335-4.891c1.07,0,1.977,0.195,2.719,0.584
		c0.742,0.39,1.337,0.943,1.788,1.661c0.45,0.718,0.778,1.582,0.985,2.591c0.207,1.01,0.31,2.135,0.31,3.375L43.898,41.407
		L43.898,41.407z"/>
	<path fill="#FFFFFF" d="M49.154,18.415v-3.649h2.481v3.649H49.154z M49.154,41.407V22.393h2.481v19.014H49.154z"/>
	<path fill="#FFFFFF" d="M73.094,41.407h-2.481v-10.62c0-2.263-0.335-3.905-1.004-4.927s-1.697-1.533-3.084-1.533
		c-0.729,0-1.459,0.134-2.189,0.402s-1.405,0.645-2.025,1.131c-0.621,0.487-1.174,1.064-1.661,1.733
		c-0.487,0.669-0.839,1.393-1.059,2.171v11.642H57.11V22.393h2.263V26.7c0.778-1.387,1.892-2.506,3.339-3.358
		c1.447-0.851,3.023-1.277,4.726-1.277c1.046,0,1.934,0.195,2.664,0.584c0.73,0.39,1.314,0.937,1.752,1.643s0.754,1.569,0.949,2.591
		c0.194,1.022,0.292,2.153,0.292,3.394v11.13H73.094z"/>
	<path fill="#FFFFFF" d="M78.386,18.415v-3.649h2.481v3.649H78.386z M78.386,41.407V22.393h2.481v19.014H78.386z"/>
	<path fill="#FFFFFF" d="M114.626,41.407h-2.481v-10.62c0-2.214-0.354-3.844-1.059-4.891c-0.706-1.046-1.752-1.569-3.139-1.569
		c-0.729,0-1.418,0.134-2.063,0.402c-0.646,0.268-1.24,0.645-1.789,1.131c-0.547,0.487-1.027,1.064-1.441,1.733
		c-0.413,0.669-0.729,1.405-0.948,2.208v11.605h-2.481v-10.62c0-2.263-0.341-3.905-1.021-4.927c-0.683-1.022-1.728-1.533-3.14-1.533
		c-1.436,0-2.713,0.499-3.832,1.497c-1.119,0.998-1.922,2.312-2.408,3.941v11.642h-2.481V22.393h2.263V26.7
		c0.778-1.46,1.802-2.597,3.065-3.413c1.265-0.815,2.664-1.223,4.197-1.223c1.604,0,2.889,0.451,3.851,1.351
		c0.961,0.9,1.551,2.08,1.77,3.54c1.777-3.26,4.222-4.891,7.337-4.891c1.069,0,1.977,0.195,2.719,0.584
		c0.742,0.39,1.338,0.943,1.788,1.661c0.45,0.718,0.777,1.582,0.984,2.591c0.207,1.01,0.312,2.135,0.312,3.375v11.132H114.626z"/>
	<path fill="#FFFFFF" d="M124.662,41.771c-0.9,0-1.732-0.152-2.5-0.456s-1.438-0.724-2.008-1.259
		c-0.571-0.535-1.016-1.162-1.332-1.88c-0.316-0.717-0.475-1.49-0.475-2.317c0-0.827,0.194-1.593,0.584-2.299
		c0.389-0.705,0.937-1.313,1.643-1.825c0.705-0.511,1.545-0.906,2.519-1.186c0.974-0.279,2.044-0.42,3.212-0.42
		c0.973,0,1.959,0.086,2.956,0.256c0.997,0.17,1.886,0.414,2.664,0.73V29.4c0-1.679-0.475-3.011-1.424-3.997
		c-0.948-0.985-2.263-1.478-3.94-1.478c-0.975,0-1.972,0.195-2.992,0.584c-1.022,0.39-2.058,0.949-3.104,1.679l-0.876-1.642
		c2.457-1.654,4.843-2.482,7.153-2.482c2.384,0,4.258,0.669,5.619,2.007c1.363,1.338,2.045,3.188,2.045,5.547v8.577
		c0,0.681,0.304,1.021,0.912,1.021v2.19c-0.414,0.073-0.729,0.109-0.948,0.109c-0.634,0-1.126-0.158-1.479-0.474
		c-0.353-0.316-0.541-0.754-0.564-1.314l-0.073-1.497c-0.876,1.144-1.978,2.02-3.303,2.628
		C127.624,41.466,126.193,41.771,124.662,41.771z M125.246,39.874c1.289,0,2.477-0.243,3.559-0.73
		c1.082-0.486,1.903-1.131,2.463-1.934c0.219-0.219,0.383-0.457,0.494-0.712c0.108-0.255,0.163-0.493,0.163-0.711v-3.103
		c-0.827-0.316-1.687-0.559-2.573-0.729c-0.889-0.17-1.795-0.256-2.719-0.256c-1.752,0-3.175,0.365-4.271,1.095
		c-1.094,0.73-1.641,1.691-1.641,2.883c0,0.584,0.114,1.131,0.346,1.643c0.23,0.511,0.547,0.955,0.949,1.332
		c0.4,0.377,0.881,0.675,1.441,0.894C124.018,39.765,124.613,39.874,125.246,39.874z"/>
	<path fill="#FFFFFF" d="M139.881,14.765h2.48V37.1c0,0.706,0.195,1.259,0.584,1.661c0.39,0.401,0.938,0.602,1.644,0.602
		c0.269,0,0.584-0.036,0.948-0.109c0.365-0.073,0.706-0.17,1.021-0.292l0.438,2.007c-0.462,0.195-1.028,0.354-1.697,0.475
		c-0.669,0.121-1.247,0.182-1.733,0.182c-1.144,0-2.043-0.322-2.699-0.967c-0.657-0.645-0.985-1.551-0.985-2.719L139.881,14.765
		L139.881,14.765z"/>
</g>
<g>
	<path fill="#222222" d="M50.663,140.877H40.078v-1.301c0.259-0.035,0.53-0.065,0.813-0.09c0.283-0.023,0.519-0.082,0.707-0.178
		c0.259-0.119,0.424-0.317,0.495-0.598c0.071-0.279,0.106-0.639,0.106-1.078v-8.322c0-1.224-0.218-2.142-0.653-2.752
		c-0.435-0.611-1.057-0.918-1.867-0.918c-0.512,0-0.968,0.08-1.367,0.239c-0.399,0.16-0.766,0.359-1.099,0.599
		c-0.345,0.25-0.614,0.498-0.804,0.748c-0.19,0.25-0.352,0.463-0.482,0.642v9.569c0,0.428,0.05,0.774,0.15,1.043
		c0.101,0.268,0.286,0.479,0.557,0.633c0.188,0.105,0.403,0.201,0.645,0.285c0.241,0.082,0.498,0.143,0.769,0.178v1.301H27.924
		v-1.301c0.224-0.023,0.495-0.055,0.813-0.09c0.318-0.035,0.554-0.094,0.707-0.178c0.247-0.132,0.409-0.32,0.486-0.57
		c0.077-0.249,0.115-0.617,0.115-1.104v-8.321c0-1.225-0.218-2.143-0.653-2.754c-0.435-0.61-1.057-0.918-1.867-0.918
		c-0.512,0-0.968,0.08-1.367,0.24c-0.399,0.16-0.766,0.359-1.099,0.598c-0.345,0.25-0.614,0.498-0.804,0.748
		s-0.352,0.463-0.482,0.643v9.568c0,0.416,0.054,0.762,0.161,1.033c0.107,0.273,0.296,0.488,0.57,0.644
		c0.19,0.105,0.407,0.2,0.651,0.284c0.243,0.082,0.501,0.144,0.775,0.179v1.301H15.254v-1.301c0.309-0.022,0.612-0.054,0.909-0.091
		c0.296-0.034,0.552-0.094,0.766-0.178c0.38-0.143,0.642-0.348,0.784-0.615c0.143-0.267,0.214-0.619,0.214-1.06v-10.372
		c0-0.379-0.101-0.75-0.303-1.113c-0.202-0.36-0.445-0.645-0.73-0.846c-0.214-0.143-0.484-0.262-0.811-0.357
		c-0.327-0.094-0.686-0.159-1.078-0.194v-1.301l8.5-0.464l0.267,0.268v2.514h0.071c0.333-0.298,0.728-0.65,1.185-1.062
		c0.457-0.41,0.888-0.739,1.292-0.988c0.439-0.284,1.004-0.522,1.693-0.713s1.443-0.285,2.263-0.285
		c1.354,0,2.486,0.294,3.395,0.882c0.909,0.588,1.553,1.369,1.934,2.344h0.161c0.344-0.32,0.766-0.697,1.265-1.131
		c0.499-0.435,0.956-0.781,1.372-1.043c0.463-0.297,1.054-0.547,1.773-0.748c0.719-0.203,1.488-0.303,2.308-0.303
		c1.794,0,3.175,0.527,4.144,1.586c0.968,1.057,1.452,2.561,1.452,4.508v8.66c0,0.439,0.065,0.793,0.196,1.061
		c0.13,0.268,0.368,0.473,0.712,0.615c0.19,0.082,0.425,0.166,0.704,0.25c0.279,0.082,0.603,0.143,0.971,0.178V140.877z"/>
	<path fill="#222222" d="M72.706,140.503c-0.521,0.226-1.138,0.433-1.85,0.624c-0.711,0.189-1.464,0.285-2.258,0.285
		c-1.458,0-2.531-0.217-3.219-0.65s-1.156-1.055-1.405-1.863h-0.107c-0.404,0.404-0.794,0.75-1.169,1.035
		c-0.375,0.284-0.776,0.527-1.205,0.729c-0.559,0.261-1.097,0.457-1.615,0.588s-1.24,0.196-2.168,0.196
		c-1.38,0-2.559-0.408-3.534-1.223c-0.975-0.815-1.463-1.896-1.463-3.24c0-0.771,0.107-1.431,0.321-1.971
		c0.214-0.541,0.518-1.021,0.91-1.438c0.357-0.382,0.771-0.695,1.241-0.945c0.47-0.25,0.984-0.481,1.544-0.694
		c1.071-0.394,2.356-0.802,3.855-1.224c1.5-0.423,2.594-0.801,3.284-1.134v-1.711c0-0.297-0.024-0.688-0.071-1.176
		c-0.047-0.488-0.148-0.897-0.303-1.229c-0.167-0.381-0.428-0.701-0.785-0.963c-0.356-0.261-0.826-0.392-1.408-0.392
		c-0.523,0-0.959,0.074-1.31,0.223c-0.351,0.148-0.633,0.3-0.847,0.454c0.036,0.237,0.137,0.6,0.304,1.088
		c0.167,0.485,0.25,0.956,0.25,1.407c0,0.201-0.054,0.453-0.161,0.757c-0.107,0.303-0.262,0.544-0.465,0.723
		c-0.274,0.237-0.581,0.423-0.92,0.552c-0.339,0.131-0.861,0.196-1.563,0.196c-1.001,0-1.757-0.239-2.27-0.722
		c-0.512-0.481-0.769-1.108-0.769-1.881c0-0.666,0.265-1.262,0.793-1.791c0.529-0.528,1.173-0.965,1.934-1.311
		c0.749-0.354,1.61-0.632,2.584-0.828c0.974-0.195,1.877-0.293,2.708-0.293c1.152,0,2.21,0.067,3.172,0.204
		c0.962,0.138,1.829,0.419,2.602,0.847c0.736,0.416,1.321,1.02,1.755,1.81s0.65,1.819,0.65,3.092c0,1.343-0.027,2.935-0.08,4.775
		c-0.054,1.842-0.081,3.054-0.081,3.635c0,0.535,0.081,0.957,0.241,1.267c0.161,0.31,0.407,0.541,0.74,0.694
		c0.202,0.097,0.52,0.151,0.953,0.17c0.434,0.019,0.829,0.025,1.185,0.025V140.503L72.706,140.503z M63.867,131.219
		c-0.667,0.227-1.33,0.484-1.985,0.777c-0.656,0.291-1.192,0.598-1.609,0.92c-0.441,0.333-0.787,0.759-1.038,1.277
		c-0.25,0.518-0.375,1.127-0.375,1.83c0,0.929,0.211,1.602,0.635,2.019c0.424,0.417,0.945,0.626,1.565,0.626
		c0.656,0,1.195-0.135,1.619-0.402c0.424-0.267,0.796-0.599,1.118-0.992L63.867,131.219z"/>
	<path fill="#222222" d="M94.395,140.877H83.256v-1.301c0.584-0.035,1.073-0.086,1.467-0.151c0.393-0.065,0.59-0.198,0.59-0.401
		c0-0.094-0.052-0.242-0.151-0.444c-0.103-0.201-0.229-0.429-0.384-0.679c-0.228-0.368-0.616-0.952-1.17-1.75
		c-0.553-0.799-1.074-1.536-1.563-2.215c-0.689,0.797-1.268,1.482-1.73,2.054s-0.951,1.186-1.461,1.841
		c-0.18,0.214-0.304,0.411-0.375,0.589c-0.072,0.179-0.107,0.285-0.107,0.32c0,0.272,0.193,0.481,0.58,0.624
		s0.848,0.214,1.383,0.214v1.301h-7.235v-1.301c0.964-0.202,1.733-0.522,2.311-0.963c0.577-0.439,0.966-0.777,1.168-1.017
		c0.869-0.931,1.604-1.703,2.204-2.317c0.601-0.615,1.407-1.478,2.418-2.587c-0.677-0.937-1.495-2.077-2.457-3.428
		c-0.961-1.351-1.762-2.457-2.403-3.322c-0.323-0.428-0.717-0.756-1.183-0.987c-0.466-0.231-1.069-0.383-1.81-0.455V123.2h10.889
		v1.301c-0.391,0-0.776,0.024-1.156,0.072c-0.379,0.047-0.568,0.131-0.568,0.249c0,0.095,0.029,0.214,0.088,0.355
		c0.06,0.144,0.137,0.291,0.231,0.445c0.226,0.38,0.58,0.938,1.065,1.674c0.486,0.736,1.006,1.508,1.563,2.314
		c0.535-0.652,0.983-1.187,1.347-1.603s0.83-1.004,1.399-1.764c0.214-0.285,0.349-0.498,0.401-0.642
		c0.053-0.143,0.08-0.231,0.08-0.268c0-0.202-0.129-0.383-0.383-0.543c-0.257-0.161-0.758-0.259-1.504-0.295v-1.301h7.092v1.301
		c-0.582,0.096-1.146,0.291-1.691,0.588c-0.547,0.297-1.117,0.762-1.711,1.391c-0.926,0.963-1.6,1.666-2.02,2.111
		c-0.422,0.445-1.119,1.184-2.092,2.217c0.546,0.772,1.335,1.896,2.367,3.369c1.031,1.473,1.922,2.715,2.67,3.725
		c0.32,0.453,0.68,0.82,1.078,1.105c0.396,0.285,1.029,0.475,1.896,0.57v1.303H94.395z"/>
	<path fill="#222222" d="M106.797,140.877H95.534v-1.301c0.309-0.023,0.612-0.055,0.909-0.09s0.552-0.094,0.766-0.178
		c0.381-0.144,0.646-0.349,0.803-0.615c0.154-0.268,0.231-0.62,0.231-1.061v-10.372c0-0.415-0.097-0.78-0.285-1.096
		c-0.19-0.313-0.429-0.565-0.713-0.757c-0.214-0.143-0.538-0.279-0.972-0.41c-0.435-0.13-0.828-0.214-1.186-0.249v-1.301l8.73-0.464
		l0.269,0.268V137.4c0,0.416,0.089,0.771,0.269,1.062c0.178,0.291,0.434,0.508,0.766,0.649c0.238,0.106,0.499,0.201,0.783,0.285
		c0.285,0.082,0.582,0.144,0.893,0.179V140.877z M104.195,116.57c0,0.902-0.348,1.672-1.043,2.308s-1.519,0.954-2.469,0.954
		c-0.963,0-1.791-0.318-2.485-0.954s-1.042-1.405-1.042-2.308c0-0.903,0.348-1.676,1.042-2.316c0.694-0.643,1.522-0.963,2.485-0.963
		s1.787,0.32,2.478,0.963C103.852,114.895,104.195,115.668,104.195,116.57z"/>
	<path fill="#222222" d="M143.827,140.877h-10.585v-1.301c0.259-0.035,0.529-0.065,0.813-0.09c0.282-0.023,0.52-0.082,0.707-0.178
		c0.26-0.119,0.424-0.317,0.494-0.598c0.071-0.279,0.105-0.639,0.105-1.078v-8.322c0-1.224-0.217-2.142-0.651-2.752
		c-0.435-0.611-1.058-0.918-1.867-0.918c-0.513,0-0.969,0.08-1.366,0.239c-0.399,0.16-0.767,0.359-1.101,0.599
		c-0.345,0.25-0.612,0.498-0.804,0.748s-0.352,0.463-0.482,0.642v9.569c0,0.428,0.051,0.774,0.148,1.043
		c0.102,0.268,0.287,0.479,0.559,0.633c0.188,0.105,0.403,0.201,0.645,0.285c0.242,0.082,0.498,0.143,0.77,0.178v1.301H121.09
		v-1.301c0.225-0.023,0.494-0.055,0.813-0.09s0.555-0.094,0.707-0.178c0.248-0.132,0.41-0.32,0.486-0.57
		c0.076-0.249,0.114-0.617,0.114-1.104v-8.321c0-1.225-0.218-2.143-0.651-2.754c-0.435-0.61-1.059-0.918-1.867-0.918
		c-0.514,0-0.969,0.08-1.367,0.24c-0.399,0.16-0.766,0.359-1.1,0.598c-0.346,0.25-0.613,0.498-0.805,0.748s-0.352,0.463-0.482,0.643
		v9.568c0,0.416,0.055,0.762,0.16,1.033c0.107,0.273,0.297,0.488,0.57,0.644c0.189,0.105,0.407,0.2,0.65,0.284
		c0.242,0.082,0.502,0.144,0.774,0.179v1.301h-10.675v-1.301c0.311-0.022,0.611-0.054,0.909-0.091
		c0.297-0.034,0.553-0.094,0.767-0.178c0.381-0.143,0.643-0.348,0.784-0.615c0.144-0.267,0.214-0.619,0.214-1.06v-10.372
		c0-0.379-0.102-0.75-0.304-1.113c-0.202-0.36-0.445-0.645-0.729-0.846c-0.215-0.143-0.484-0.262-0.812-0.357
		c-0.327-0.094-0.687-0.159-1.078-0.194v-1.301l8.5-0.464l0.269,0.268v2.514h0.07c0.332-0.298,0.729-0.65,1.186-1.062
		s0.889-0.739,1.291-0.988c0.439-0.284,1.004-0.522,1.693-0.713c0.688-0.19,1.443-0.285,2.264-0.285
		c1.354,0,2.485,0.294,3.395,0.882s1.555,1.369,1.934,2.344h0.162c0.344-0.32,0.766-0.697,1.264-1.131
		c0.5-0.435,0.957-0.781,1.373-1.043c0.464-0.297,1.055-0.547,1.772-0.748c0.72-0.203,1.488-0.303,2.308-0.303
		c1.795,0,3.176,0.527,4.145,1.586c0.968,1.057,1.452,2.561,1.452,4.508v8.66c0,0.439,0.063,0.793,0.196,1.061
		c0.129,0.268,0.367,0.473,0.711,0.615c0.19,0.082,0.426,0.166,0.705,0.25c0.278,0.082,0.603,0.143,0.972,0.178v1.299H143.827z"/>
</g>
</svg>
